HIERARCHY
ROOT Hips
{
    OFFSET 0.000000 0.000000 0.000000
    CHANNELS 6 Xposition Yposition Zposition Zrotation Xrotation Yrotation
    JOINT Spine
    {
        OFFSET -0.000000 14.517291 0.000000
        CHANNELS 3 Zrotation Xrotation Yrotation
        JOINT Spine1
        {
            OFFSET -0.000000 37.558300 0.000000
            CHANNELS 3 Zrotation Xrotation Yrotation
            JOINT Neck
            {
                OFFSET -0.000000 37.404057 3.400369
                CHANNELS 3 Zrotation Xrotation Yrotation
                JOINT Head
                {
                    OFFSET -0.000000 24.785618 -3.540803
                    CHANNELS 3 Zrotation Xrotation Yrotation
                    End Site
                    {
                        OFFSET -0.000000 35.408028 0.000000
                    }
                }
            }
            JOINT LeftShoulder
            {
                OFFSET 6.992933 33.973492 -0.192664
                CHANNELS 3 Zrotation Xrotation Yrotation
                JOINT LeftArm
                {
                    OFFSET 21.527611 0.000000 0.000000
                    CHANNELS 3 Zrotation Xrotation Yrotation
                    JOINT LeftForeArm
                    {
                        OFFSET 56.353916 0.000000 0.000000
                        CHANNELS 3 Zrotation Xrotation Yrotation
                        JOINT LeftHand
                        {
                            OFFSET 47.774071 0.000000 0.000000
                            CHANNELS 3 Zrotation Xrotation Yrotation
                            End Site
                            {
                                OFFSET 26.556021 0.000000 0.000000
                            }
                        }
                    }
                }
            }
            JOINT RightShoulder
            {
                OFFSET -7.065357 33.973492 -0.192664
                CHANNELS 3 Zrotation Xrotation Yrotation
                JOINT RightArm
                {
                    OFFSET -21.527611 0.000000 0.000000
                    CHANNELS 3 Zrotation Xrotation Yrotation
                    JOINT RightForeArm
                    {
                        OFFSET -56.353916 0.000000 0.000000
                        CHANNELS 3 Zrotation Xrotation Yrotation
                        JOINT RightHand
                        {
                            OFFSET -47.774071 0.000000 0.000000
                            CHANNELS 3 Zrotation Xrotation Yrotation
                            End Site
                            {
                                OFFSET -26.556021 0.000000 0.000000
                            }
                        }
                    }
                }
            }
        }
    }
    JOINT LeftUpLeg
    {
        OFFSET 17.704014 0.000000 0.000000
        CHANNELS 3 Zrotation Xrotation Yrotation
        JOINT LeftLeg
        {
            OFFSET -0.000000 -81.181816 0.000000
            CHANNELS 3 Zrotation Xrotation Yrotation
            JOINT LeftFoot
            {
                OFFSET -0.000000 -62.821102 0.000000
                CHANNELS 3 Zrotation Xrotation Yrotation
                JOINT LeftToeBase
                {
                    OFFSET -0.000000 -11.507608 26.556021
                    CHANNELS 3 Zrotation Xrotation Yrotation
                    End Site
                    {
                        OFFSET -0.000000 0.000000 7.081605
                    }
                }
            }
        }
    }
    JOINT RightUpLeg
    {
        OFFSET -17.704014 0.000000 0.000000
        CHANNELS 3 Zrotation Xrotation Yrotation
        JOINT RightLeg
        {
            OFFSET -0.000000 -81.181816 0.000000
            CHANNELS 3 Zrotation Xrotation Yrotation
            JOINT RightFoot
            {
                OFFSET -0.000000 -62.821102 0.000000
                CHANNELS 3 Zrotation Xrotation Yrotation
                JOINT RightToeBase
                {
                    OFFSET -0.000000 -11.507608 26.556021
                    CHANNELS 3 Zrotation Xrotation Yrotation
                    End Site
                    {
                        OFFSET -0.000000 0.000000 7.081605
                    }
                }
            }
        }
    }
}
MOTION
Frames:    9
Frame Time:    0.008333
13.221889    157.337997    -95.843872    -20.096540    -10.858644    14.223204    -6.364964    5.634019    -3.093704    -18.318060    -3.153767    -1.634909    6.860330    0.141809    2.105297    6.125036    -9.743636    2.559469    0.992771    -6.515206    -15.987972    -18.262583    -34.942146    -30.963531    -27.111866    -45.515472    -94.481575    -57.891876    -42.686268    -55.746185    -12.579040    2.098521    -7.293788    17.782801    21.843596    14.100185    16.596258    12.941594    0.188768    23.328709    16.536133    17.985476    35.976894    1.911868    8.186776    -12.962952    40.117016    -10.864195    3.830714    -34.847103    45.286198    0.000000    0.000000    0.000000    15.444173    -24.165031    -5.314500    11.224090    15.904614    -12.730137    -1.569239    30.384874    -1.049619    0.000000    0.000000    0.000000    
13.283303    157.344467    -95.841301    -20.093033    -10.894444    14.244889    -6.402263    5.637289    -3.089820    -18.292971    -3.133686    -1.630289    6.876010    0.130704    2.118495    6.078022    -9.774395    2.561078    0.983170    -6.514058    -15.994866    -18.251532    -34.887756    -30.969328    -27.086695    -45.586750    -94.462189    -57.923050    -42.705383    -55.759468    -12.570841    2.100963    -7.309335    17.787395    21.906076    14.097791    16.599894    12.926019    0.170250    23.311020    16.521456    17.989668    35.976952    1.944565    8.187655    -12.967813    40.110413    -10.886333    3.802300    -34.874207    45.276985    0.000000    0.000000    0.000000    15.404074    -24.159882    -5.290210    11.245085    15.950315    -12.733908    -1.487708    30.401691    -1.136799    0.000000    0.000000    0.000000    
13.345802    157.349854    -95.840775    -20.083788    -10.920793    14.259319    -6.444965    5.628367    -3.081025    -18.263041    -3.113231    -1.623711    6.865952    0.144260    2.106980    6.063050    -9.810081    2.549961    0.982261    -6.506033    -15.999860    -18.263945    -34.873356    -30.980455    -27.101692    -45.609413    -94.458794    -57.942352    -42.735619    -55.750660    -12.558313    2.112772    -7.311400    17.782267    21.940924    14.093481    16.619114    12.942681    0.142125    23.296005    16.535686    17.971443    35.972557    1.975041    8.192150    -12.992875    40.105507    -10.880007    3.789549    -34.883129    45.256748    0.000000    0.000000    0.000000    15.363790    -24.154387    -5.283501    11.257184    15.988779    -12.736393    -1.477019    30.410910    -1.141051    0.000000    0.000000    0.000000    
13.413336    157.352478    -95.837967    -20.069639    -10.948986    14.284002    -6.479306    5.612059    -3.070704    -18.245691    -3.073741    -1.613660    6.896029    0.109532    2.093662    6.008450    -9.770397    2.515090    1.000580    -6.509902    -16.012482    -18.313848    -34.920563    -31.005064    -27.106361    -45.537628    -94.399940    -57.905472    -42.683235    -55.711365    -12.536048    2.131145    -7.321263    17.770491    21.967285    14.094007    16.636358    12.953788    0.123742    23.307686    16.549063    17.961849    35.958038    2.001246    8.207603    -12.988561    40.110203    -10.900998    3.777379    -34.895218    45.225666    0.000000    0.000000    0.000000    15.315532    -24.144501    -5.301424    11.259643    16.031221    -12.715681    -1.453197    30.399822    -1.148733    0.000000    0.000000    0.000000    
13.473476    157.356369    -95.836273    -20.068113    -10.966023    14.299060    -6.471258    5.596780    -3.068564    -18.306126    -3.019792    -1.605565    7.000072    -0.010799    2.111287    5.954106    -9.682495    2.493912    1.128159    -6.556907    -15.949970    -18.438593    -34.887497    -31.096401    -27.080626    -45.514420    -94.382805    -57.840961    -42.689449    -55.667007    -12.447764    2.097128    -7.404105    17.707373    22.029068    14.164110    16.648355    12.962143    0.106561    23.314369    16.561789    17.967039    35.955170    2.007500    8.243330    -12.985497    40.137115    -10.896078    3.746564    -34.907318    45.182625    0.000000    0.000000    0.000000    15.288863    -24.139893    -5.306648    11.259530    16.057915    -12.733900    -1.455494    30.404366    -1.132516    0.000000    0.000000    0.000000    
13.536745    157.357147    -95.837784    -20.062344    -10.982972    14.326680    -6.483896    5.583601    -3.067689    -18.278940    -3.008260    -1.602658    6.983507    -0.006640    2.116756    5.954976    -9.673303    2.502016    1.120060    -6.557905    -15.955942    -18.430788    -34.811954    -31.098988    -27.043842    -45.557678    -94.369102    -57.816639    -42.699898    -55.684284    -12.448867    2.107327    -7.414753    17.705757    22.057619    14.170585    16.653418    12.957525    0.106184    23.360340    16.561695    17.952904    35.943981    1.992607    8.248467    -12.994094    40.179474    -10.872009    3.723141    -34.929779    45.148933    0.000000    0.000000    0.000000    15.255279    -24.134651    -5.333993    11.255622    16.084652    -12.765880    -1.491746    30.398472    -1.076751    0.000000    0.000000    0.000000    
13.599425    157.354004    -95.831879    -20.056843    -10.996758    14.345670    -6.485854    5.559452    -3.059206    -18.265284    -2.995443    -1.597013    6.966811    -0.056488    2.115272    5.968417    -9.560111    2.497149    1.120423    -6.551275    -15.957433    -18.433292    -34.752560    -31.117575    -27.024967    -45.579620    -94.357162    -57.819984    -42.693932    -55.693710    -12.451752    2.112091    -7.428550    17.716526    22.064116    14.180284    16.666893    12.961736    0.104091    23.396357    16.562099    17.905174    35.933399    1.984010    8.235288    -13.027472    40.216740    -10.824115    3.724983    -34.938099    45.135960    0.000000    0.000000    0.000000    15.233207    -24.126177    -5.364905    11.243110    16.111135    -12.754793    -1.543245    30.377869    -1.024501    0.000000    0.000000    0.000000    
13.670826    157.349075    -95.824821    -20.044706    -11.022005    14.372363    -6.507166    5.543711    -3.053750    -18.170183    -3.028033    -1.597839    6.847429    0.075564    2.109590    6.028924    -9.590643    2.532370    0.990487    -6.498366    -16.032814    -18.297899    -34.704716    -31.033367    -27.027885    -45.613346    -94.321686    -57.854767    -42.669800    -55.743477    -12.528659    2.161763    -7.371519    17.779165    22.099173    14.150076    16.632874    12.934277    0.109898    23.412224    16.534208    17.892376    35.913326    1.989312    8.175953    -13.078425    40.237873    -10.781832    3.758044    -34.951824    45.153507    0.000000    0.000000    0.000000    15.202685    -24.100641    -5.414972    11.234790    16.132246    -12.735729    -1.578627    30.349329    -1.018032    0.000000    0.000000    0.000000    
13.742271    157.341766    -95.811501    -20.022730    -11.050258    14.399223    -6.506102    5.529856    -3.048899    -18.160086    -3.009772    -1.592835    6.846407    0.071564    2.116816    6.034137    -9.514966    2.537050    0.998573    -6.472900    -16.039925    -18.273275    -34.644695    -31.035221    -27.036873    -45.639198    -94.340889    -57.875347    -42.670155    -55.798409    -12.533351    2.169782    -7.374614    17.802641    22.108913    14.152325    16.606173    12.912035    0.121079    23.459444    16.517117    17.887007    35.886375    2.008308    8.104968    -13.127097    40.253891    -10.764616    3.808615    -34.955334    45.187820    0.000000    0.000000    0.000000    15.170953    -24.065115    -5.451078    11.227588    16.147236    -12.744302    -1.636590    30.300133    -0.990099    0.000000    0.000000    0.000000    
